<?xml version="1.0" encoding="utf-8"?>
<svg version="1.1" id="Layer_1" xmlns="http://www.w3.org/2000/svg" xmlns:xlink="http://www.w3.org/1999/xlink" x="0px" y="0px"
	 viewBox="0 0 896.8 289" style="enable-background:new 0 0 896.8 289;" xml:space="preserve">
<style type="text/css">
	.st0{fill:none;}
	.st1{fill:#EC302E;}
	.st2{fill:#14A34A;}
</style>
<g>
	<path class="st0" d="M273.6,171.4c-4.1-0.3-8.2-0.1-12.4-0.1c0,0.1,0,0.3,0,0.4c-4.8,0-9.7-0.4-14.5,0.1
		c-6.9,0.6-13.1,3.3-14.9,10.6c-1.1,4.3-0.8,9-0.4,13.5c0.5,5.3,3.8,8.7,9,10.2c8.1,2.3,16.3,2.5,24.4,0.3
		c7.2-1.9,11.1-6.8,11.5-14.1c0.3-6.1,0.3-12.2,0.1-18.3C276.4,173,274.7,171.5,273.6,171.4z"/>
	<path class="st0" d="M138.8,144.7c-0.3-6.5-1.8-12.8-6.4-17.7c-6.6-7.1-15.1-7.9-24-6c-9.5,2.1-13.8,9.2-15.5,17.9
		c-3,15.1-2.4,30.4-0.7,45.5C93.1,192.5,96,200,104,204c14.4,7.2,30.7-0.2,33.7-15.9c1.5-8,1.3-16.4,1.8-24.6c-0.2,0-0.5,0-0.7,0
		C138.8,157.2,139.1,151,138.8,144.7z"/>
	<path class="st1" d="M139,103.6c-2.9-1.7-4.9-3-7.1-4c-10.7-4.8-21.9-5.4-33.4-4c-20,2.3-33.4,14.7-36.6,34.6
		c-3.7,22.4-3.8,44.9,0.2,67.2c2.4,13.5,8.9,25.3,22.4,30.1c19.9,7,39.9,8.1,58-5.8c0.5-0.4,1.2-0.6,1.9-1c0.7,3,1.4,5.7,2,8.3
		c8.2,0,16,0,24,0c0-61,0-121.7,0-183c-9.3,0-18.4,0.1-27.5-0.1c-3.3-0.1-4,1.2-4,4.2c0.1,12.4,0.1,24.8,0.1,37.2
		C139,92.5,139,97.6,139,103.6z M138.9,163.7c0,8.4,0.3,16.4-1.2,24.4c-3,15.7-19.3,23.1-33.7,15.9c-8-4-10.9-11.6-11.8-19.6
		c-1.8-15.2-2.3-30.4,0.7-45.5c1.7-8.7,6-15.8,15.5-17.9c8.9-2,17.4-1.1,24,6c4.6,4.9,6,11.3,6.4,17.7"/>
	<path class="st1" d="M280.7,222.5c1.5,2.5,2.7,6.3,4.2,6.4c7.6,0.6,15.3,0.3,23.1,0.3c0.1-1.6,0.3-2.7,0.3-3.9
		c-0.2-30.8-0.1-61.6-0.9-92.3c-0.4-15.8-8.2-27.9-23.6-33.4c-20.1-7.3-40.2-6.7-59.7,2.5c-7.4,3.5-13.5,8.7-18.4,15.7
		c7.4,5.2,14.4,10.2,21.5,15.3c1-0.9,1.7-1.6,2.4-2.3c7.8-8.2,17.4-11.5,28.6-10.4c6.8,0.7,12.7,3.2,15.8,10
		c2.7,6,2.9,12.3,2.3,19.4c-7.7,0-15-0.2-22.2,0.1c-8.4,0.3-16.8,0.6-25.1,1.6c-14.7,1.7-24.2,9.7-26.7,24
		c-1.5,8.7-1.3,17.9-0.7,26.7c0.4,5.2,2.5,10.6,5.1,15.2c5.2,9.3,14.5,12.6,24.4,13.6c17.2,1.9,34.5,2.9,49.6-8.4
		C280.7,222.4,281.1,222.6,280.7,222.5z M273.6,171.3c2.9,0,2.8,1.6,2.8,2.5c0.2,6.2,0.2,12.3-0.1,18.4c-0.4,7.3-4.3,12.2-11.5,14.1
		c-8.1,2.2-16.3,2-24.4-0.3c-5.1-1.5-8.5-4.9-9-10.2c-0.4-4.5-0.7-9.2,0.4-13.5c1.8-7.3,8-10,14.9-10.6"/>
	<path class="st1" d="M529.9,97.7c-10.6,0-20.5-0.1-30.4,0.1c-0.9,0-2.3,1.6-2.6,2.7c-2.7,8.8-5.1,17.7-7.7,26.6
		c-6.1,21.3-12.3,42.5-18.4,63.8c-0.3,0-0.7,0.1-1,0.1c-9.7-31.1-19.4-62.2-29-92.9c-10.9,0-21.1,0-31.8,0c0.3,1.4,0.5,2.3,0.8,3.3
		c3.5,10.2,7,20.4,10.5,30.6c10.7,30.6,21.4,61.2,32,91.8c0.6,1.8,0.9,4.1,0.3,5.8c-2.6,7.4-5.3,14.7-8.4,21.9
		c-2.6,6.1-7.6,9.5-14.2,10.3c-4,0.5-8.1,0.9-12.2,1.3c0,8.4,0,16.5,0,26.1c9.7-1,18.8-1.8,27.9-3c11.3-1.5,19.7-7.8,24.6-17.7
		c4.7-9.5,8.9-19.4,12.4-29.4c12.8-37.7,25.3-75.5,37.9-113.2C523.6,116.5,526.6,107.4,529.9,97.7z"/>
	<path class="st1" d="M609.4,204.6c-2.5,0.9-5.2,1.7-7.9,1.9c-13.4,1-26.8,1.5-36-11.2c-0.5-0.7-2.5-1.3-3.2-0.9
		c-7.2,4-14.2,8.2-21.4,12.4c6.7,12.6,17.2,19.1,29.9,22.3c15,3.7,30.2,3.6,45.4,1.1c20.3-3.4,31.3-14.3,33.7-34.4
		c1.3-10.5-0.1-20.9-6.1-29.9s-15.7-11.8-25.7-13.6c-10.1-1.8-20.3-2.9-30.3-5.1c-7.4-1.6-10-5.2-10.2-11.7
		c-0.1-6.9,3.5-12.2,10.1-14.1c10.5-3,25.1-2.5,33.3,9.7c0.5,0.8,1.3,1.4,2.1,2.2c7.7-4.5,15.3-8.9,23.1-13.4
		c-5.3-8.6-11.9-15.2-20.7-19.1c-16.5-7.4-33.7-7.9-50.9-3.2c-13,3.5-22.3,12-25.2,25.3c-1.7,7.6-1.5,15.8-0.8,23.6
		c1,10.7,7.6,17.9,17.4,21.9c4.2,1.7,8.5,3.3,13,4.1c9.2,1.7,18.6,2.8,27.8,4.3c7.9,1.2,12.1,5.3,12.7,11.6
		C620.4,196.8,617.1,202,609.4,204.6z"/>
	<path class="st1" d="M379.1,192.3c-1.2-5.8-1.9-11.8-1.9-17.7c-0.2-41.3-0.1-82.6,0-124c0-3.5-0.9-4.7-4.5-4.6
		c-7.3,0.3-14.5,0.4-21.8,0c-4.4-0.2-5.5,1.2-5.4,5.5c0.2,40.2,0,80.4,0.2,120.5c0,8.5,0.4,17.1,1.5,25.6c1.3,10.4,4.8,20.2,15,25.4
		c4.5,2.3,9.5,4,14.5,4.6c9.2,1.2,18.5,1.5,28,2.1c0-9.4,0-17.5,0-25.9c-4.4-0.4-8.7-0.6-12.9-1.2
		C385.3,201.9,380.5,198.7,379.1,192.3z"/>
	<path class="st2" d="M858.5,0h-14.4l0,0h-2.4H51.6C23.2,0,0,21.8,0,48.4v191.1C0,266.3,23.2,288,51.6,288h168.6H254h140.4v-17.4
		H254h-33.8H51.6c-18.2,0-33-13.9-33-31V48.4c0-17.1,14.8-31,33-31h168.6H254h448.5v253.1H502.9L487,288h318.3h30.6h8.2v-0.5h14.4
		c21,0,38.2-19.2,38.2-42.6V42.6C896.8,19.2,879.6,0,858.5,0z M743.8,229.8c-5.3,0-9.1-4-9.1-9.4c0-5.5,3.8-9.5,9.2-9.5
		s9.1,3.9,9.1,9.5C752.9,225.9,749.3,229.8,743.8,229.8z M805.6,228.7h-42.8v-68.6h15.6v55.5h27.3L805.6,228.7L805.6,228.7z
		 M851.7,173.2H833v55.5h-15.6v-55.5H799v-13h52.7V173.2z"/>
</g>
</svg>
